<?xml version="1.0" encoding="UTF-8" standalone="no"?>
<!-- Created with Inkscape (http://www.inkscape.org/) -->

<svg
   xmlns:dc="http://purl.org/dc/elements/1.1/"
   xmlns:cc="http://creativecommons.org/ns#"
   xmlns:rdf="http://www.w3.org/1999/02/22-rdf-syntax-ns#"
   xmlns:svg="http://www.w3.org/2000/svg"
   xmlns="http://www.w3.org/2000/svg"
   xmlns:sodipodi="http://sodipodi.sourceforge.net/DTD/sodipodi-0.dtd"
   xmlns:inkscape="http://www.inkscape.org/namespaces/inkscape"
   width="260"
   height="260"
   viewBox="0 0 260 260"
   id="svg2"
   version="1.1"
   inkscape:version="0.91 r13725"
   sodipodi:docname="drawing.svg"
   inkscape:export-filename="/media/drmccloy/data/Desktop/favicon.png"
   inkscape:export-xdpi="90"
   inkscape:export-ydpi="90">
  <defs
     id="defs4" />
  <sodipodi:namedview
     id="base"
     pagecolor="#ffffff"
     bordercolor="#666666"
     borderopacity="1.0"
     inkscape:pageopacity="0"
     inkscape:pageshadow="2"
     inkscape:zoom="1.979899"
     inkscape:cx="11.353282"
     inkscape:cy="139.45599"
     inkscape:document-units="px"
     inkscape:current-layer="layer1"
     showgrid="false"
     units="px"
     inkscape:window-width="1920"
     inkscape:window-height="1053"
     inkscape:window-x="0"
     inkscape:window-y="0"
     inkscape:window-maximized="1">
    <inkscape:grid
       type="xygrid"
       id="grid4226" />
  </sodipodi:namedview>
  <metadata
     id="metadata7">
    <rdf:RDF>
      <cc:Work
         rdf:about="">
        <dc:format>image/svg+xml</dc:format>
        <dc:type
           rdf:resource="http://purl.org/dc/dcmitype/StillImage" />
        <dc:title></dc:title>
      </cc:Work>
    </rdf:RDF>
  </metadata>
  <g
     inkscape:groupmode="layer"
     id="layer1"
     inkscape:label="Layer 4"
     style="display:inline">
    <path
       style="opacity:1;fill:#000000;fill-opacity:1;stroke:none;stroke-width:2.5;stroke-linecap:round;stroke-miterlimit:4;stroke-dasharray:none;stroke-opacity:1"
       d="M 12 0 C 5.352 0 0 5.352 0 12 L 0 248 C 0 254.648 5.352 260 12 260 L 248 260 C 254.648 260 260 254.648 260 248 L 260 12 C 260 5.352 254.648 0 248 0 L 12 0 z M 100.55469 46.677734 C 103.25066 46.677734 105.61083 46.957872 107.63281 47.519531 C 109.65479 48.081191 111.33951 48.867916 112.6875 49.878906 C 114.03549 50.833732 115.04671 51.956228 115.7207 53.248047 C 116.3947 54.539867 116.73047 55.916633 116.73047 57.376953 C 116.73047 59.286596 116.33711 60.858095 115.55078 62.09375 C 114.82063 63.329405 113.97826 64.312809 113.02344 65.042969 C 111.95628 65.885458 110.72056 66.531139 109.31641 66.980469 L 93.814453 55.101562 C 91.792474 55.887887 90.248797 56.871298 89.181641 58.050781 C 88.170652 59.230272 87.439564 60.859356 86.990234 62.9375 C 86.540906 64.95948 86.288588 67.570022 86.232422 70.771484 L 86.232422 82.736328 L 86.232422 162.94141 C 86.232422 163.72773 86.653602 164.51445 87.496094 165.30078 C 88.394751 166.03094 89.237113 166.45213 90.023438 166.56445 L 97.4375 167.23828 L 97.4375 173.80859 L 70.140625 173.80859 L 70.140625 164.625 C 68.174812 166.14149 66.152363 167.60171 64.074219 169.00586 C 62.05224 170.35385 59.918518 171.53393 57.671875 172.54492 C 55.481398 173.55591 53.178813 174.37045 50.763672 174.98828 C 48.404697 175.6061 45.961067 175.91602 43.433594 175.91602 C 37.648487 175.91602 32.649956 174.68028 28.4375 172.20898 C 24.28121 169.6815 20.826356 166.45115 18.074219 162.51953 C 15.378247 158.53174 13.38557 154.09544 12.09375 149.20898 C 10.80193 144.26637 10.15625 139.35129 10.15625 134.46484 C 10.15625 128.62357 11.054249 122.95154 12.851562 117.44727 C 14.705044 111.88683 17.484445 106.97175 21.191406 102.70312 C 24.898367 98.434511 29.505489 95.007467 35.009766 92.423828 C 40.570207 89.840189 47.05678 88.548828 54.470703 88.548828 C 55.874855 88.548828 57.335078 88.632288 58.851562 88.800781 C 60.424214 88.969282 61.912254 89.16596 63.316406 89.390625 C 64.776725 89.559118 66.097856 89.783616 67.277344 90.064453 C 68.512998 90.28911 69.466632 90.485796 70.140625 90.654297 L 70.140625 82.736328 C 70.140625 77.625214 70.730669 72.879001 71.910156 68.498047 C 73.14581 64.117094 74.999396 60.324518 77.470703 57.123047 C 79.998177 53.865412 83.170942 51.31051 86.990234 49.457031 C 90.809528 47.603553 95.331239 46.677734 100.55469 46.677734 z M 166.68945 88.548828 C 169.16076 88.548828 171.40772 88.914378 173.42969 89.644531 C 175.45167 90.318527 177.22179 91.244337 178.73828 92.423828 C 180.31093 93.547146 181.65793 94.838513 182.78125 96.298828 C 183.96074 97.702976 184.91631 99.107564 185.64648 100.51172 C 187.38761 99.444573 189.49353 98.208848 191.96484 96.804688 C 194.43614 95.400537 197.04864 94.109178 199.80078 92.929688 C 202.55292 91.694032 205.3045 90.656942 208.05664 89.814453 C 210.80877 88.971964 213.33587 88.548828 215.63867 88.548828 C 220.18813 88.548828 223.8953 89.391194 226.75977 91.076172 C 229.62423 92.704993 231.87118 94.812846 233.5 97.396484 C 235.18498 99.923951 236.3353 102.75899 236.95312 105.9043 C 237.57095 109.04959 237.88086 112.08327 237.88086 115.00391 L 237.88086 162.77344 C 237.88086 163.84061 238.21858 164.71079 238.89258 165.38477 C 239.62274 166.05877 240.49097 166.45207 241.50195 166.56445 L 249.84375 167.06836 L 249.84375 173.80859 L 211.17383 173.80859 L 211.17383 167.06836 L 218.41797 166.56445 C 219.48512 166.45218 220.35726 166.05877 221.03125 165.38477 C 221.70524 164.71079 222.04297 163.84061 222.04297 162.77344 L 222.04297 118.79492 C 222.04297 116.09894 221.78869 113.68509 221.2832 111.55078 C 220.77771 109.36031 219.90753 107.50672 218.67188 105.99023 C 217.49239 104.47375 215.9209 103.29366 213.95508 102.45117 C 211.98927 101.60867 209.57344 101.18555 206.70898 101.18555 C 205.24866 101.18555 203.70303 101.32854 202.07422 101.60938 C 200.50158 101.83404 198.90225 102.1698 197.27344 102.61914 C 195.70079 103.0123 194.12735 103.5189 192.55469 104.13672 C 191.03821 104.69839 189.60579 105.31624 188.25781 105.99023 L 188.25781 162.77344 C 188.25781 163.84061 188.59358 164.71079 189.26758 165.38477 C 189.94156 166.05877 190.8137 166.45207 191.88086 166.56445 L 199.12695 167.06836 L 199.12695 173.80859 L 161.29688 173.80859 L 161.29688 167.06836 L 168.54297 166.56445 C 169.61012 166.45218 170.48226 166.05877 171.15625 165.38477 C 171.83024 164.71079 172.16603 163.84061 172.16602 162.77344 L 172.16602 117.69922 C 172.16602 115.28408 171.88588 113.06689 171.32422 111.04492 C 170.81873 108.96677 169.94659 107.22447 168.71094 105.82031 C 167.53145 104.35999 165.95996 103.23749 163.99414 102.45117 C 162.0845 101.60867 159.75409 101.18555 157.00195 101.18555 C 155.37314 101.18555 153.65864 101.35442 151.86133 101.69141 C 150.12018 101.97225 148.43545 102.3656 146.80664 102.87109 C 145.17782 103.32042 143.63415 103.85483 142.17383 104.47266 C 140.76968 105.03432 139.56177 105.59654 138.55078 106.1582 L 138.55078 162.77344 L 138.55078 176.58984 C 138.55078 182.99278 137.51173 188.49789 135.43359 193.10352 C 133.35544 197.70913 130.60386 201.49976 127.17773 204.47656 C 123.80777 207.50952 119.95956 209.72865 115.63477 211.13281 C 111.30998 212.59313 106.90149 213.32227 102.4082 213.32227 C 99.936896 213.32227 97.832945 212.98649 96.091797 212.3125 C 94.350649 211.6385 92.94411 210.73855 91.876953 209.61523 C 90.809798 208.54808 90.052845 207.34017 89.603516 205.99219 C 89.098021 204.70037 88.845703 203.40902 88.845703 202.11719 C 88.845703 200.37605 89.181477 198.77672 89.855469 197.31641 C 90.473296 195.91226 91.232202 194.73217 92.130859 193.77734 C 92.97335 192.82252 93.815713 192.06361 94.658203 191.50195 C 95.500694 190.99646 96.088784 190.74414 96.425781 190.74414 L 110.41406 205.23438 C 111.70588 205.23438 113.05288 204.69997 114.45703 203.63281 C 115.86118 202.62183 117.15059 201.10596 118.33008 199.08398 C 119.50957 197.11816 120.49298 194.67649 121.2793 191.75586 C 122.06563 188.89138 122.45898 185.60343 122.45898 181.89648 L 122.45898 162.77344 L 122.45898 102.87109 L 110.58008 102.87109 L 110.41406 102.87109 L 110.41406 97.228516 L 131.47266 90.65625 L 138.55078 90.65625 L 138.55078 99.25 C 140.46043 98.070513 142.56633 96.860656 144.86914 95.625 C 147.22812 94.389343 149.64393 93.239029 152.11523 92.171875 C 154.58654 91.104721 157.05799 90.234543 159.5293 89.560547 C 162.05676 88.886559 164.4428 88.548828 166.68945 88.548828 z M 55.482422 96.888672 C 51.2138 96.888672 47.337766 97.732983 43.855469 99.417969 C 40.429339 101.04678 37.481073 103.37719 35.009766 106.41016 C 32.594624 109.38696 30.713221 113.00872 29.365234 117.27734 C 28.017249 121.54596 27.341797 126.29219 27.341797 131.51562 C 27.341797 136.23358 27.904023 140.58643 29.027344 144.57422 C 30.150666 148.50585 31.779752 151.90506 33.914062 154.76953 C 36.048375 157.634 38.660865 159.879 41.75 161.50781 C 44.839134 163.13663 48.377443 163.95117 52.365234 163.95117 C 55.847532 163.95117 59.131569 163.36113 62.220703 162.18164 C 65.366004 160.94599 68.006314 159.59899 70.140625 158.13867 L 70.140625 99.417969 C 69.410466 99.193303 68.484649 98.939033 67.361328 98.658203 C 66.238007 98.321209 65.002284 98.041072 63.654297 97.816406 C 62.306312 97.535577 60.901724 97.311079 59.441406 97.142578 C 58.037254 96.974077 56.718075 96.888672 55.482422 96.888672 z "
       id="rect4140" />
  </g>
</svg>
