<?xml version="1.0" standalone="no"?>
<!DOCTYPE svg PUBLIC "-//W3C//DTD SVG 20010904//EN"
 "http://www.w3.org/TR/2001/REC-SVG-20010904/DTD/svg10.dtd">
<svg version="1.0" xmlns="http://www.w3.org/2000/svg"
 width="16.000000pt" height="16.000000pt" viewBox="0 0 16.000000 16.000000"
 preserveAspectRatio="xMidYMid meet">
<metadata>
Created by potrace 1.11, written by Peter Selinger 2001-2013
</metadata>
<g transform="translate(0.000000,16.000000) scale(0.002286,-0.002286)"
fill="#000000" stroke="none">
<path d="M235 6986 c-95 -30 -162 -88 -204 -176 l-26 -55 0 -3255 0 -3255 26
-55 c33 -70 89 -126 159 -159 l55 -26 3255 0 3255 0 55 26 c70 33 126 89 159
159 l26 55 0 3255 0 3255 -26 55 c-33 70 -89 126 -159 159 l-55 26 -3240 2
c-2591 1 -3248 -1 -3280 -11z m2670 -1271 c150 -43 229 -130 234 -257 4 -104
-67 -212 -163 -246 -36 -13 -36 -13 -118 50 -46 35 -140 107 -209 161 l-126
96 -54 -32 c-67 -40 -103 -93 -126 -182 -16 -65 -18 -165 -19 -1385 -2 -1417
-5 -1347 49 -1383 25 -16 54 -22 172 -33 39 -3 72 -10 75 -14 3 -5 5 -44 4
-87 l0 -78 -367 -3 -367 -2 0 120 c0 66 -4 120 -8 120 -4 0 -46 -29 -94 -63
-146 -108 -357 -203 -493 -223 -152 -22 -350 4 -474 62 -121 57 -270 190 -345
307 -155 243 -226 569 -193 892 61 595 454 1007 1022 1071 162 18 294 8 558
-41 l27 -5 1 172 c1 176 1 187 19 293 17 102 20 115 42 179 79 232 232 401
437 484 53 22 182 49 256 54 68 5 198 -8 260 -27z m1735 -1122 c124 -34 254
-133 326 -247 16 -25 34 -46 39 -46 6 0 21 9 35 20 14 11 28 20 33 20 4 0 25
11 46 24 41 26 204 109 284 145 85 39 250 90 318 99 249 32 461 -60 577 -251
53 -88 72 -149 98 -317 4 -25 8 -363 8 -752 1 -687 2 -707 21 -728 31 -34 53
-42 124 -47 36 -2 84 -6 106 -7 22 -2 47 -4 56 -5 13 -1 16 -15 16 -91 l-1
-90 -520 2 -521 3 0 83 c0 46 4 86 9 90 5 3 34 7 65 9 153 9 193 23 210 75 7
22 10 241 10 670 -1 650 -4 694 -41 800 -34 95 -120 173 -225 204 -138 40
-395 3 -594 -87 l-49 -23 0 -779 c0 -768 0 -779 20 -808 24 -33 60 -45 145
-48 68 -3 115 -8 120 -13 3 -3 7 -111 6 -155 l-1 -23 -509 0 -509 0 0 90 c1
76 3 90 17 91 9 0 27 2 41 4 14 2 56 6 95 9 72 5 110 24 130 63 7 13 10 252 9
684 0 652 -1 665 -23 743 -21 75 -58 143 -97 177 -31 27 -110 67 -156 80 -130
35 -416 -13 -586 -100 l-42 -21 -1 -993 c0 -545 -2 -1012 -5 -1037 -33 -297
-168 -531 -397 -689 -88 -60 -261 -128 -377 -147 -14 -2 -40 -6 -57 -9 -57
-10 -210 -6 -255 5 -116 30 -194 98 -227 195 -38 117 -5 242 90 337 79 79 79
78 217 -64 283 -292 254 -265 289 -258 38 9 101 56 143 110 41 52 97 174 114
252 8 35 18 77 22 93 4 17 8 540 9 1163 l2 1132 -164 0 -163 0 2 76 3 75 55
19 c30 10 102 32 160 50 58 18 152 48 210 67 88 30 123 36 218 40 l112 5 0
-116 0 -117 63 36 c96 56 252 132 346 169 201 80 359 99 501 59z"/>
<path d="M1317 4370 c-214 -54 -376 -191 -475 -400 -31 -67 -68 -179 -77 -234
-3 -17 -10 -57 -16 -88 -10 -57 -15 -320 -6 -335 2 -4 8 -37 11 -73 9 -88 65
-249 117 -340 84 -145 228 -255 384 -295 61 -16 193 -20 275 -10 68 9 180 50
272 99 l83 44 3 794 2 793 -97 22 c-148 34 -150 34 -278 39 -97 3 -135 0 -198
-16z"/>
</g>
</svg>
